<?xml version="1.0" encoding="UTF-8" standalone="no"?>
<!DOCTYPE svg PUBLIC "-//W3C//DTD SVG 1.1//EN" "http://www.w3.org/Graphics/SVG/1.1/DTD/svg11.dtd">
<svg width="100%" height="100%" viewBox="0 0 562 81" version="1.1" xmlns="http://www.w3.org/2000/svg" xmlns:xlink="http://www.w3.org/1999/xlink" xml:space="preserve" xmlns:serif="http://www.serif.com/" style="fill-rule:evenodd;clip-rule:evenodd;stroke-linecap:round;stroke-linejoin:round;stroke-miterlimit:1.5;">
    <g transform="matrix(1,0,0,1,-845,-102)">
        <g transform="matrix(1,0,0,1,-0.808907,0)">
            <g id="Phase1" transform="matrix(1,0,0,0.738123,813.685,88.7888)">
                <path d="M171.662,39.861L174.869,27.89C175.846,24.246 178.401,21.819 181.263,21.819C196.753,21.819 245.882,21.819 266.912,21.819C269.13,21.819 271.209,23.285 272.482,25.745C273.755,28.206 274.062,31.353 273.305,34.178L271.783,39.861L583.967,39.861C586.186,39.861 588.264,41.326 589.537,43.787C590.81,46.248 591.118,49.395 590.361,52.22C586.579,66.333 580.545,88.854 577.669,99.585C576.693,103.229 574.137,105.656 571.276,105.656L254.153,105.656L250.945,117.627C249.969,121.271 247.413,123.697 244.552,123.697C229.062,123.697 179.933,123.697 158.903,123.697C156.685,123.697 154.606,122.232 153.333,119.771C152.06,117.31 151.753,114.163 152.509,111.338L154.032,105.656L41.769,105.656C39.551,105.656 37.473,104.19 36.2,101.73C34.926,99.269 34.619,96.122 35.376,93.297C39.158,79.183 45.192,56.663 48.068,45.931C49.044,42.287 51.6,39.861 54.461,39.861L171.662,39.861Z" style="fill:rgb(255,204,0);stroke:rgb(3,0,0);stroke-width:5.69px;"/>
                <g transform="matrix(0.259436,0,-0.302908,1.13047,65.5462,0.451975)">
                    <path d="M436.63,52.779C436.63,50.28 432.195,47.496 424.746,45.32C417.298,43.143 407.772,41.847 399.223,41.847C318.161,41.847 128.795,41.847 69.087,41.847C58.058,41.847 50.714,43.993 50.714,47.216C50.714,54.116 50.714,66.263 50.714,75.143C50.714,77.642 55.149,80.426 62.597,82.603C70.046,84.78 79.572,86.076 88.121,86.076C169.182,86.076 358.549,86.076 418.256,86.076C429.286,86.076 436.63,83.93 436.63,80.706C436.63,73.806 436.63,61.66 436.63,52.779Z" style="fill:rgb(255,0,51);"/>
                </g>
                <g transform="matrix(0.259436,0,-0.617194,2.3034,189.166,-74.5701)">
                    <path d="M436.63,47.212C436.63,45.986 432.195,44.619 424.746,43.551C417.298,42.483 407.772,41.847 399.223,41.847C318.161,41.847 128.795,41.847 69.087,41.847C58.058,41.847 50.714,42.9 50.714,44.482C50.714,51.573 50.714,71.166 50.714,80.711C50.714,81.937 55.149,83.303 62.597,84.371C70.046,85.44 79.572,86.076 88.121,86.076C169.182,86.076 358.549,86.076 418.256,86.076C429.286,86.076 436.63,85.023 436.63,83.441C436.63,76.35 436.63,56.757 436.63,47.212Z" style="fill:rgb(255,204,0);"/>
                </g>
                <g transform="matrix(0.259436,0,-0.303197,1.13154,272.601,0.383198)">
                    <path d="M436.63,52.769C436.63,50.272 432.195,47.491 424.746,45.316C417.298,43.142 407.772,41.847 399.223,41.847C318.161,41.847 128.795,41.847 69.087,41.847C58.058,41.847 50.714,43.991 50.714,47.211C50.714,54.113 50.714,66.27 50.714,75.154C50.714,77.65 55.149,80.432 62.597,82.606C70.046,84.781 79.572,86.076 88.121,86.076C169.182,86.076 358.549,86.076 418.256,86.076C429.286,86.076 436.63,83.932 436.63,80.711C436.63,73.809 436.63,61.653 436.63,52.769Z" style="fill:rgb(204,255,102);"/>
                </g>
                <g transform="matrix(0.259436,0,-0.302908,1.13047,376.101,0.451975)">
                    <path d="M436.63,52.779C436.63,50.28 432.195,47.496 424.746,45.32C417.298,43.143 407.772,41.847 399.223,41.847C318.161,41.847 128.795,41.847 69.087,41.847C58.058,41.847 50.714,43.993 50.714,47.216C50.714,54.116 50.714,66.263 50.714,75.143C50.714,77.642 55.149,80.426 62.597,82.603C70.046,84.78 79.572,86.076 88.121,86.076C169.182,86.076 358.549,86.076 418.256,86.076C429.286,86.076 436.63,83.93 436.63,80.706C436.63,73.806 436.63,61.66 436.63,52.779Z" style="fill:rgb(153,204,0);"/>
                </g>
                <g transform="matrix(0.259436,0,-0.302908,1.13047,479.619,0.451975)">
                    <path d="M436.63,52.779C436.63,50.28 432.195,47.496 424.746,45.32C417.298,43.143 407.772,41.847 399.223,41.847C318.161,41.847 128.795,41.847 69.087,41.847C58.058,41.847 50.714,43.993 50.714,47.216C50.714,54.116 50.714,66.263 50.714,75.143C50.714,77.642 55.149,80.426 62.597,82.603C70.046,84.78 79.572,86.076 88.121,86.076C169.182,86.076 358.549,86.076 418.256,86.076C429.286,86.076 436.63,83.93 436.63,80.706C436.63,73.806 436.63,61.66 436.63,52.779Z" style="fill:rgb(0,204,255);"/>
                </g>
                <g transform="matrix(1,0,0,1.35479,-177.06,-9.14497)">
                    <text x="279.779px" y="67.613px" style="font-family:'Arial-Black', 'Arial Black', sans-serif;font-weight:900;font-size:20px;">0</text>
                </g>
                <g transform="matrix(1,0,0,1.35479,-73.5416,-9.14497)">
                    <text x="243.104px" y="67.613px" style="font-family:'Arial-Black', 'Arial Black', sans-serif;font-weight:900;font-size:20px;">Phase 1</text>
                </g>
                <g transform="matrix(1,0,0,1.35479,29.9766,-9.14497)">
                    <text x="279.779px" y="67.613px" style="font-family:'Arial-Black', 'Arial Black', sans-serif;font-weight:900;font-size:20px;">3</text>
                </g>
                <g transform="matrix(1,0,0,1.35479,133.495,-9.14497)">
                    <text x="279.779px" y="67.613px" style="font-family:'Arial-Black', 'Arial Black', sans-serif;font-weight:900;font-size:20px;">3</text>
                </g>
                <g transform="matrix(1,0,0,1.35479,237.013,-9.14497)">
                    <text x="279.779px" y="67.613px" style="font-family:'Arial-Black', 'Arial Black', sans-serif;font-weight:900;font-size:20px;">4</text>
                </g>
            </g>
        </g>
    </g>
</svg>
