<?xml version="1.0" encoding="UTF-8" standalone="no"?>
<!DOCTYPE svg PUBLIC "-//W3C//DTD SVG 1.1//EN" "http://www.w3.org/Graphics/SVG/1.1/DTD/svg11.dtd">
<svg width="100%" height="100%" viewBox="0 0 563 81" version="1.1" xmlns="http://www.w3.org/2000/svg" xmlns:xlink="http://www.w3.org/1999/xlink" xml:space="preserve" xmlns:serif="http://www.serif.com/" style="fill-rule:evenodd;clip-rule:evenodd;stroke-linecap:round;stroke-linejoin:round;stroke-miterlimit:1.5;">
    <g transform="matrix(1,0,0,1,-844,-16)">
        <g transform="matrix(1,0,0,1,-0.808907,0)">
            <g id="Phase2" transform="matrix(1,0,0,0.738123,813.685,2.83035)">
                <g transform="matrix(1.40958,0,-0.398597,1.48759,-5.11076,-22.3896)">
                    <path d="M436.63,50.155C436.63,48.256 435.814,46.14 434.443,44.486C433.072,42.832 431.319,41.847 429.745,41.847C380.996,41.847 88.863,41.847 54.095,41.847C52.065,41.847 50.714,43.478 50.714,45.927C50.714,53.142 50.714,68.28 50.714,77.768C50.714,79.667 51.53,81.782 52.901,83.437C54.272,85.091 56.025,86.076 57.599,86.076C106.348,86.076 398.481,86.076 433.248,86.076C435.278,86.076 436.63,84.445 436.63,81.995C436.63,74.781 436.63,59.642 436.63,50.155Z" style="fill:rgb(204,255,102);"/>
                </g>
                <g transform="matrix(1,0,0,1,0,-0.134454)">
                    <path d="M275.216,39.861L278.388,28.024C279.364,24.38 281.92,21.954 284.781,21.954C300.271,21.954 349.4,21.954 370.43,21.954C372.648,21.954 374.727,23.419 376,25.88C377.273,28.341 377.58,31.488 376.823,34.313L375.337,39.861L583.967,39.861C586.186,39.861 588.264,41.326 589.537,43.787C590.81,46.248 591.118,49.395 590.361,52.22C586.579,66.333 580.545,88.854 577.669,99.585C576.693,103.229 574.137,105.656 571.276,105.656L357.707,105.656L354.463,117.761C353.487,121.405 350.932,123.832 348.07,123.832C332.58,123.832 283.451,123.832 262.421,123.832C260.203,123.832 258.124,122.366 256.851,119.906C255.578,117.445 255.271,114.298 256.028,111.473L257.586,105.656L41.769,105.656C39.551,105.656 37.473,104.19 36.2,101.73C34.926,99.269 34.619,96.122 35.376,93.297C39.158,79.183 45.192,56.663 48.068,45.931C49.044,42.287 51.6,39.861 54.461,39.861L275.216,39.861Z" style="fill:rgb(204,255,102);stroke:rgb(3,0,0);stroke-width:5.69px;"/>
                </g>
                <g transform="matrix(0.259436,0,-0.302908,1.13047,65.5462,0.451975)">
                    <path d="M436.63,52.779C436.63,50.28 432.195,47.496 424.746,45.32C417.298,43.143 407.772,41.847 399.223,41.847C318.161,41.847 128.795,41.847 69.087,41.847C58.058,41.847 50.714,43.993 50.714,47.216C50.714,54.116 50.714,66.263 50.714,75.143C50.714,77.642 55.149,80.426 62.597,82.603C70.046,84.78 79.572,86.076 88.121,86.076C169.182,86.076 358.549,86.076 418.256,86.076C429.286,86.076 436.63,83.93 436.63,80.706C436.63,73.806 436.63,61.66 436.63,52.779Z" style="fill:rgb(255,0,51);"/>
                </g>
                <g transform="matrix(0.259436,0,-0.302908,1.13047,169.064,0.451975)">
                    <path d="M436.63,52.779C436.63,50.28 432.195,47.496 424.746,45.32C417.298,43.143 407.772,41.847 399.223,41.847C318.161,41.847 128.795,41.847 69.087,41.847C58.058,41.847 50.714,43.993 50.714,47.216C50.714,54.116 50.714,66.263 50.714,75.143C50.714,77.642 55.149,80.426 62.597,82.603C70.046,84.78 79.572,86.076 88.121,86.076C169.182,86.076 358.549,86.076 418.256,86.076C429.286,86.076 436.63,83.93 436.63,80.706C436.63,73.806 436.63,61.66 436.63,52.779Z" style="fill:rgb(255,204,0);"/>
                </g>
                <g transform="matrix(0.259436,0,-0.617194,2.3034,292.685,-74.5701)">
                    <path d="M436.63,47.212C436.63,45.986 432.195,44.619 424.746,43.551C417.298,42.483 407.772,41.847 399.223,41.847C318.161,41.847 128.795,41.847 69.087,41.847C58.058,41.847 50.714,42.9 50.714,44.482C50.714,51.573 50.714,71.166 50.714,80.711C50.714,81.937 55.149,83.303 62.597,84.371C70.046,85.44 79.572,86.076 88.121,86.076C169.182,86.076 358.549,86.076 418.256,86.076C429.286,86.076 436.63,85.023 436.63,83.441C436.63,76.35 436.63,56.757 436.63,47.212Z" style="fill:rgb(204,255,102);"/>
                </g>
                <g transform="matrix(0.259436,0,-0.302908,1.13047,376.101,0.451975)">
                    <path d="M436.63,52.779C436.63,50.28 432.195,47.496 424.746,45.32C417.298,43.143 407.772,41.847 399.223,41.847C318.161,41.847 128.795,41.847 69.087,41.847C58.058,41.847 50.714,43.993 50.714,47.216C50.714,54.116 50.714,66.263 50.714,75.143C50.714,77.642 55.149,80.426 62.597,82.603C70.046,84.78 79.572,86.076 88.121,86.076C169.182,86.076 358.549,86.076 418.256,86.076C429.286,86.076 436.63,83.93 436.63,80.706L436.63,52.779Z" style="fill:rgb(153,204,0);"/>
                </g>
                <g transform="matrix(0.259436,0,-0.302908,1.13047,479.619,0.451975)">
                    <path d="M436.63,52.779C436.63,50.28 432.195,47.496 424.746,45.32C417.298,43.143 407.772,41.847 399.223,41.847C318.161,41.847 128.795,41.847 69.087,41.847C58.058,41.847 50.714,43.993 50.714,47.216C50.714,54.116 50.714,66.263 50.714,75.143C50.714,77.642 55.149,80.426 62.597,82.603C70.046,84.78 79.572,86.076 88.121,86.076C169.182,86.076 358.549,86.076 418.256,86.076C429.286,86.076 436.63,83.93 436.63,80.706C436.63,73.806 436.63,61.66 436.63,52.779Z" style="fill:rgb(0,204,255);"/>
                </g>
                <g transform="matrix(1,0,0,1.35479,-177.06,-9.14497)">
                    <text x="279.779px" y="67.613px" style="font-family:'Arial-Black', 'Arial Black', sans-serif;font-weight:900;font-size:20px;">0</text>
                </g>
                <g transform="matrix(1,0,0,1.35479,-73.5416,-9.14497)">
                    <text x="279.779px" y="67.613px" style="font-family:'Arial-Black', 'Arial Black', sans-serif;font-weight:900;font-size:20px;">1</text>
                </g>
                <g transform="matrix(1,0,0,1.35479,29.9766,-9.14497)">
                    <text x="243.104px" y="67.613px" style="font-family:'Arial-Black', 'Arial Black', sans-serif;font-weight:900;font-size:20px;">Phase 2</text>
                </g>
                <g transform="matrix(1,0,0,1.35479,133.495,-9.14497)">
                    <text x="279.779px" y="67.613px" style="font-family:'Arial-Black', 'Arial Black', sans-serif;font-weight:900;font-size:20px;">3</text>
                </g>
                <g transform="matrix(1,0,0,1.35479,237.013,-9.14497)">
                    <text x="279.779px" y="67.613px" style="font-family:'Arial-Black', 'Arial Black', sans-serif;font-weight:900;font-size:20px;">4</text>
                </g>
            </g>
        </g>
    </g>
</svg>
